<mxfile host="app.diagrams.net" modified="2023-09-14T00:17:44.230Z" agent="Mozilla/5.0 (Windows NT 10.0; Win64; x64) AppleWebKit/537.36 (KHTML, like Gecko) Chrome/116.0.0.0 Safari/537.36" version="21.7.5" etag="gdXfSrJxRFbuiHhSJ6tp" type="github">
  <diagram name="페이지-1" id="xwKWoGTF4wZIfgkZheuP">
    <mxGraphModel>
      <root>
        <mxCell id="0" />
        <mxCell id="1" parent="0" />
      </root>
    </mxGraphModel>
  </diagram>
</mxfile>
